<svg width="133" height="102" viewBox="0 0 133 102" fill="none" xmlns="http://www.w3.org/2000/svg">
<path d="M121.192 8.79272C128.875 16.9515 133 26.1022 133 40.9357C133 67.0379 114.672 90.433 88.0202 102L81.359 91.7232C106.236 78.2694 111.099 60.8107 113.039 49.803C109.033 51.8763 103.789 52.5997 98.6498 52.1224C85.1931 50.8769 74.5859 39.832 74.5859 26.1022C74.5859 19.1795 77.3365 12.5403 82.2327 7.64516C87.1288 2.75005 93.7694 0 100.694 0C108.697 0 116.351 3.65431 121.192 8.79272ZM46.5985 8.79272C54.2816 16.9515 58.4066 26.1022 58.4066 40.9357C58.4066 67.0379 40.079 90.433 13.4268 102L6.76562 91.7232C31.6425 78.2694 36.506 60.8107 38.4454 49.803C34.4398 51.8763 29.1958 52.5997 24.0564 52.1224C10.5997 50.8769 0 39.832 0 26.1022C0 19.1795 2.75062 12.5403 7.64676 7.64516C12.5429 2.75005 19.1835 0 26.1077 0C34.1116 0 41.7648 3.65431 46.6059 8.79272H46.5985Z" fill="#E6E6E6"/>
</svg>
