<svg width="104" height="85" viewBox="0 0 104 85" fill="none" xmlns="http://www.w3.org/2000/svg">
<path d="M83.9939 52.7914C86.9423 -11.9614 8.95012 -16.3397 0.308716 36.4183C11.2242 -2.24061 71.2592 -0.421309 73.9881 45.9693L83.9939 52.7914Z" fill="#0E00A7"/>
<path d="M73.9886 45.9695C70.3501 -12.5356 -14.3708 3.29715 2.12849 55.9754C6.89844 52.3968 9.39541 50.6302 14.8632 48.2436C7.13074 8.22018 71.2591 -1.78566 70.3501 44.1503L73.9886 45.9695Z" fill="#0C9AD7"/>
<path d="M78.9028 64.9872L63.0723 61.433C57.1599 69.6196 48.5163 72.7689 33.0548 69.6196C32.2404 82.4569 61.2654 80.6559 78.9028 64.9872Z" fill="#0C9AD7"/>
<path d="M13.9529 74.1677C9.85969 58.7041 70.8043 31.4154 103.096 80.535C81.7197 52.3367 44.4252 54.156 33.9646 66.4359C25.6365 78.1159 51.2474 87.812 78.9908 65.0714C59.8889 92.8149 26.6877 87.3571 13.9529 74.1677Z" fill="#1804FF"/>
<path d="M103.096 80.0803C77.6264 38.6925 13.9529 48.2435 13.0433 73.2581C8.94996 70.0744 3.94704 61.8878 2.58261 56.8849C36.6934 30.5059 83.9937 42.331 103.096 80.0803Z" fill="#34C2FF"/>
</svg>
